HIERARCHY
ROOT Hips
{
	OFFSET 0.0000 0.0000 0.0000
	CHANNELS 6 Xposition Yposition Zposition Zrotation Xrotation Yrotation
	JOINT Spine1
	{
		OFFSET -0.0137 5.0038 -0.0537
		CHANNELS 3 Zrotation Xrotation Yrotation
		JOINT Spine2
		{
			OFFSET -0.0000 7.1253 -0.0298
			CHANNELS 3 Zrotation Xrotation Yrotation
			JOINT Chest
			{
				OFFSET -0.0000 7.5501 -0.8160
				CHANNELS 3 Zrotation Xrotation Yrotation
				JOINT Neck1
				{
					OFFSET -0.1817 26.3113 -0.5533
					CHANNELS 3 Zrotation Xrotation Yrotation
					JOINT Neck2
					{
						OFFSET -0.0000 7.7094 2.3026
						CHANNELS 3 Zrotation Xrotation Yrotation
						JOINT Head
						{
							OFFSET -0.0000 6.1289 1.9537
							CHANNELS 3 Zrotation Xrotation Yrotation
							JOINT Jaw
							{
								OFFSET 0.0026 0.4756 3.0949
								CHANNELS 3 Zrotation Xrotation Yrotation
								End Site
								{
									OFFSET 0.0 1.0 0.0
								}
							}
							JOINT LeftEye
							{
								OFFSET 3.2064 5.3802 7.5869
								CHANNELS 3 Zrotation Xrotation Yrotation
								End Site
								{
									OFFSET 0.0 1.0 0.0
								}
							}
							JOINT RightEye
							{
								OFFSET -3.2224 5.3619 7.5582
								CHANNELS 3 Zrotation Xrotation Yrotation
								End Site
								{
									OFFSET 0.0 1.0 0.0
								}
							}
						}
					}
				}
				JOINT LeftShoulder
				{
					OFFSET 1.6217 23.2372 5.1134
					CHANNELS 3 Zrotation Xrotation Yrotation
					JOINT LeftArm
					{
						OFFSET 14.9198 0.0000 -5.5023
						CHANNELS 3 Zrotation Xrotation Yrotation
						JOINT LeftForeArm
						{
							OFFSET 28.7393 0.0000 -0.0026
							CHANNELS 3 Zrotation Xrotation Yrotation
							JOINT LeftHand
							{
								OFFSET 27.0940 -0.0000 0.0026
								CHANNELS 3 Zrotation Xrotation Yrotation
								JOINT LeftHandThumbEnd
								{
									OFFSET 12.2686 -3.2202 4.8331
									CHANNELS 3 Zrotation Xrotation Yrotation
									End Site
									{
										OFFSET 0.0 1.0 0.0
									}
								}
								JOINT LeftHandMiddleEnd
								{
									OFFSET 19.0120 -0.3129 -0.0340
									CHANNELS 3 Zrotation Xrotation Yrotation
									End Site
									{
										OFFSET 0.0 1.0 0.0
									}
								}
							}
						}
					}
				}
				JOINT RightShoulder
				{
					OFFSET -1.3801 23.1803 5.2142
					CHANNELS 3 Zrotation Xrotation Yrotation
					JOINT RightArm
					{
						OFFSET -15.0372 0.0000 -5.5456
						CHANNELS 3 Zrotation Xrotation Yrotation
						JOINT RightForeArm
						{
							OFFSET -28.7366 0.0000 -0.0026
							CHANNELS 3 Zrotation Xrotation Yrotation
							JOINT RightHand
							{
								OFFSET -27.1336 -0.0000 0.0026
								CHANNELS 3 Zrotation Xrotation Yrotation
								JOINT RightHandThumbEnd
								{
									OFFSET -12.2642 -3.2115 4.8040
									CHANNELS 3 Zrotation Xrotation Yrotation
									End Site
									{
										OFFSET 0.0 1.0 0.0
									}
								}
								JOINT RightHandMiddleEnd
								{
									OFFSET -19.0006 -0.3066 -0.0316
									CHANNELS 3 Zrotation Xrotation Yrotation
									End Site
									{
										OFFSET 0.0 1.0 0.0
									}
								}
							}
						}
					}
				}
			}
		}
	}
	JOINT LeftLeg
	{
		OFFSET 10.0432 -8.4345 2.5957
		CHANNELS 3 Zrotation Xrotation Yrotation
		JOINT LeftShin
		{
			OFFSET -0.0000 -43.2218 -0.8029
			CHANNELS 3 Zrotation Xrotation Yrotation
			JOINT LeftFoot
			{
				OFFSET 0.0000 -42.1551 -3.4815
				CHANNELS 3 Zrotation Xrotation Yrotation
				JOINT LeftToeBase
				{
					OFFSET 0.0000 -5.0595 13.2315
					CHANNELS 3 Zrotation Xrotation Yrotation
					End Site
					{
						OFFSET 0.0 1.0 0.0
					}
				}
			}
		}
	}
	JOINT RightLeg
	{
		OFFSET -10.0473 -8.2953 2.6203
		CHANNELS 3 Zrotation Xrotation Yrotation
		JOINT RightShin
		{
			OFFSET 0.0000 -43.3622 -0.8056
			CHANNELS 3 Zrotation Xrotation Yrotation
			JOINT RightFoot
			{
				OFFSET 0.0000 -42.1174 -3.4784
				CHANNELS 3 Zrotation Xrotation Yrotation
				JOINT RightToeBase
				{
					OFFSET -0.0000 -5.0796 13.2842
					CHANNELS 3 Zrotation Xrotation Yrotation
					End Site
					{
						OFFSET 0.0 1.0 0.0
					}
				}
			}
		}
	}
}
MOTION
Frames: 12
Frame Time: 0.033333
-23.6421 88.9072 -123.7290 1.6288 11.0656 3.9637 -0.2600 5.7743 -0.0232 -0.4056 -1.6302 -0.7737 1.3188 14.6515 -2.7079 3.5877 -5.9905 1.9198 -0.9506 -3.5974 -0.8742 -3.1436 -17.7217 0.8297 0.0137 0.0490 -0.0127 0.7077 -10.5769 -3.8876 -0.6837 -10.5913 3.8551 8.1480 9.3361 -16.1786 -24.9234 -41.8426 -34.8479 1.7867 1.4485 -61.0415 36.0718 27.3985 36.4836 -16.6189 11.5903 16.2168 -61.1905 1.5849 1.5486 -10.3266 4.2487 18.2048 15.4141 -50.8248 27.6372 -1.5465 1.1480 95.6066 -26.1619 38.0088 -32.0510 16.0013 7.0395 -16.2559 50.0831 -3.7743 -5.3143 -0.3430 -55.2616 20.6142 -0.6840 62.8549 -0.7856 -7.3962 -9.1568 2.8787 1.7374 -2.2287 -2.1993 7.8424 -47.0931 -16.1138 -0.3681 55.1660 -0.6175 -2.6711 -20.8607 -7.9378 -1.4316 -0.2198 1.0034
-23.3682 89.3052 -124.5957 1.7011 11.2550 3.9300 -0.1241 5.6844 0.1178 -0.3591 -1.6950 -0.8433 1.0293 14.4811 -2.8220 3.9760 -5.8023 1.8335 -0.9505 -3.6092 -0.8224 -2.9902 -17.5341 0.8713 0.0120 0.0416 0.0051 0.7109 -10.5566 -3.8727 -0.6880 -10.5697 3.8749 7.6169 9.4559 -16.0804 -27.7447 -41.7826 -34.6499 1.7333 1.5292 -61.2236 37.2229 28.0925 36.7424 -16.7854 11.6085 16.2795 -61.1322 1.6082 1.5125 -11.2075 4.0195 18.0946 15.5075 -51.3560 28.5924 -1.4386 1.3471 95.5721 -25.7768 38.5872 -31.8949 16.0182 7.0527 -16.2890 50.1591 -3.7746 -5.3599 1.3049 -52.7001 18.9118 -0.8744 67.8095 -1.0081 -6.6701 -10.1177 1.2303 1.7775 -2.8098 -2.1937 7.4810 -47.4538 -15.5691 -0.3032 53.9872 -0.5201 -2.5984 -19.6573 -8.2747 -1.4251 -0.1717 1.0071
-23.0056 89.7118 -125.4239 1.6547 11.4901 3.8915 0.0047 5.5041 0.1775 -0.3239 -1.8023 -0.9083 0.7629 14.2696 -2.9361 4.5107 -5.7236 1.7427 -0.9625 -3.6039 -0.6747 -2.7920 -17.3849 0.9210 0.0111 0.0413 0.0070 0.7191 -10.5246 -3.8690 -0.6958 -10.5313 3.8745 7.1925 9.4742 -16.0695 -30.3478 -41.5525 -34.2133 1.5342 1.5044 -61.9017 38.5329 29.0386 37.2391 -16.9579 11.5835 16.3249 -61.1019 1.6283 1.5448 -11.9591 3.7858 17.9493 15.7162 -51.8094 29.2568 -1.1860 1.4316 95.5381 -25.0689 38.7727 -31.2235 16.0442 7.0114 -16.3180 50.1900 -3.7893 -5.4073 2.6960 -49.4862 17.2565 -1.1589 70.7259 -1.3582 -6.1863 -10.8493 -0.3749 1.8152 -3.4985 -2.1962 7.2775 -47.7052 -15.2267 -0.2565 52.6459 -0.4509 -2.5269 -18.3434 -8.5074 -1.4198 -0.1473 1.0098
-22.6325 90.1118 -126.2589 1.5006 11.8103 3.9510 0.1069 5.2513 0.1432 -0.3001 -1.9413 -0.9877 0.5336 14.0037 -3.0057 5.2309 -5.7341 1.6002 -0.9912 -3.6007 -0.4857 -2.5734 -17.2694 1.0105 0.0105 0.0421 -0.0055 0.7275 -10.4891 -3.8776 -0.7038 -10.4866 3.8589 6.9561 9.4418 -16.1013 -32.3772 -41.1287 -33.9189 1.1798 1.4234 -63.0248 39.8450 30.2544 38.0051 -17.1112 11.4961 16.3247 -61.1001 1.6239 1.6057 -12.5303 3.5450 17.7615 16.0320 -52.1745 29.3836 -0.8373 1.4660 95.6398 -24.1741 38.6434 -30.2701 16.0833 6.9654 -16.3641 50.2037 -3.7905 -5.4468 3.8019 -45.9537 15.6855 -1.4589 71.7053 -1.7700 -5.9525 -11.8421 -1.5673 1.8479 -4.2086 -2.2017 7.2894 -47.9880 -15.1712 -0.2450 51.2488 -0.4304 -2.4487 -16.9565 -8.5795 -1.4168 -0.1243 1.0099
-22.2199 90.4499 -127.1270 1.2461 12.1688 4.0788 0.1763 4.9381 0.0382 -0.2990 -2.0945 -1.0325 0.3695 13.7125 -3.0721 6.1038 -5.7812 1.4125 -1.0024 -3.6136 -0.2786 -2.3456 -17.1382 1.0798 0.0106 0.0435 -0.0210 0.7383 -10.4616 -3.8907 -0.7128 -10.4508 3.8415 6.8898 9.4475 -16.1434 -33.4759 -40.3729 -34.1950 0.9147 1.4148 -64.3145 40.9617 31.6078 39.0178 -17.3006 11.3807 16.3217 -61.1788 1.6076 1.6666 -12.8929 3.2924 17.5517 16.5083 -52.3600 28.9425 -0.5084 1.6040 95.8736 -23.3156 38.2300 -29.2504 16.1288 6.9235 -16.4239 50.1931 -3.8264 -5.4790 4.6362 -42.2923 14.2259 -1.5311 70.5992 -1.9876 -5.8122 -13.2707 -2.3198 1.8727 -5.0229 -2.2186 7.4982 -48.2780 -15.4281 -0.2327 49.8918 -0.4176 -2.3121 -15.5248 -8.4743 -1.4163 -0.1422 1.0068
-21.7684 90.7049 -128.0859 0.9027 12.4792 4.2888 0.1947 4.6098 -0.0635 -0.2971 -2.2682 -1.1352 0.2563 13.4404 -3.1029 7.0486 -5.8416 1.2048 -0.9483 -3.6260 -0.0172 -2.0999 -16.9410 1.1257 0.0120 0.0430 -0.0362 0.7513 -10.4648 -3.9075 -0.7208 -10.4487 3.8286 6.9493 9.4991 -16.1369 -33.6269 -39.4721 -35.0557 0.7460 1.4395 -65.5093 41.7801 33.1295 40.1862 -17.5030 11.2241 16.2410 -61.3560 1.5911 1.6813 -13.0042 3.1701 17.3286 16.9492 -52.4058 28.0625 -0.2750 1.5632 96.2512 -22.8859 37.9955 -28.6779 16.1791 6.9412 -16.4990 50.2238 -3.8576 -5.5056 5.2326 -38.6284 12.8809 -1.4017 67.4857 -2.0379 -5.9850 -15.2247 -2.9898 1.8983 -6.3773 -2.2633 7.8342 -48.5722 -15.9315 -0.2510 48.6551 -0.4610 -2.1148 -14.1439 -8.2118 -1.4143 -0.1171 1.0006
-21.2377 90.8277 -129.1531 0.4715 12.7295 4.5116 0.1790 4.2354 -0.1801 -0.3264 -2.4092 -1.1931 0.2752 13.1480 -3.1129 7.9667 -5.8894 1.0160 -0.8386 -3.6341 0.2026 -1.8288 -16.5996 1.1646 0.0157 0.0408 -0.0594 0.7627 -10.4734 -3.9358 -0.7235 -10.4540 3.8080 7.1163 9.5522 -16.0945 -33.1310 -38.5558 -36.2273 0.7438 1.5090 -66.4754 42.2434 34.6188 41.4017 -17.7106 11.0999 16.1266 -61.6341 1.5873 1.6322 -12.8689 3.0911 17.1238 17.2832 -52.3077 27.0451 -0.1006 1.4746 96.4759 -22.6504 37.8120 -28.3271 16.2467 6.9422 -16.5100 50.2473 -3.9020 -5.5464 5.6031 -35.2155 11.6644 -1.1377 62.7912 -1.9354 -6.3205 -17.8228 -3.3707 1.9285 -8.2144 -2.3379 8.3238 -48.8356 -16.7010 -0.2488 47.5266 -0.4781 -1.8282 -12.8671 -7.8711 -1.4099 -0.0708 0.9907
-20.6853 90.8433 -130.3043 -0.0594 12.8749 4.6335 0.1285 3.8683 -0.2364 -0.3406 -2.5541 -1.3008 0.4020 12.8471 -2.9656 8.7784 -5.8555 0.8471 -0.7108 -3.6252 0.3768 -1.5206 -16.2397 1.1782 0.0196 0.0369 -0.0861 0.7653 -10.5002 -3.9688 -0.7170 -10.4772 3.7868 7.4173 9.5126 -16.0438 -32.4705 -37.9090 -37.1725 0.7635 1.4991 -67.2466 42.5238 36.0416 42.4904 -17.8012 11.0378 15.9982 -61.8513 1.5973 1.5699 -12.5918 3.0489 16.9837 17.4775 -52.1861 26.0327 0.1674 1.2214 96.4293 -22.6345 37.5954 -28.0729 16.3085 6.9278 -16.5014 50.2697 -3.9233 -5.5813 5.8052 -32.3841 10.6145 -0.8958 57.8023 -1.7684 -6.8806 -21.4714 -3.2989 1.9389 -8.8246 -2.3918 8.9640 -49.0975 -17.6075 -0.2495 46.6107 -0.4838 -1.4157 -11.6952 -7.4627 -1.4082 -0.1472 1.0027
-20.0833 90.7554 -131.4732 -0.7200 12.8502 4.5874 0.0735 3.4991 -0.2667 -0.2903 -2.6682 -1.4047 0.6009 12.5337 -2.7378 9.3855 -5.5891 0.6531 -0.6144 -3.5950 0.8229 -1.0582 -15.9819 1.1263 0.0182 0.0465 -0.0574 0.7619 -10.5142 -3.9462 -0.7185 -10.4704 3.8234 7.7648 9.3252 -15.7556 -31.9205 -37.7097 -37.7919 0.4681 1.6262 -67.7624 42.7372 37.2353 43.4140 -17.6619 11.0878 15.9478 -62.0122 1.5838 1.6692 -12.2466 3.0931 16.9767 17.4070 -51.6215 25.5271 0.0044 1.1839 95.9751 -22.4953 37.4141 -27.4957 16.3477 6.9558 -16.4635 50.2956 -3.7685 -5.5137 5.9902 -30.2706 9.6665 -0.7499 53.5330 -1.5162 -7.6666 -25.6609 -2.3943 1.8761 -7.0818 -2.3001 9.7499 -49.2659 -18.5775 -0.2990 45.8876 -0.5310 -0.9466 -10.6200 -6.9717 -1.4079 -0.3102 1.0265
-19.5254 90.6930 -132.6348 -1.3061 12.6608 4.5389 -0.0241 3.1196 -0.2914 -0.2846 -2.8246 -1.3379 0.8918 12.2938 -2.5853 9.7687 -5.1440 0.4753 -0.5135 -3.5973 0.9313 -0.6761 -15.8174 1.3670 0.0164 0.0424 -0.0930 0.7647 -10.5263 -3.9824 -0.7256 -10.4828 3.7905 8.1183 9.0281 -15.4812 -31.2498 -37.3749 -38.2556 0.4373 1.7310 -68.1239 42.2812 37.8497 43.7342 -17.4363 11.1465 15.9313 -61.9606 1.5712 1.7796 -11.7127 3.0658 16.9082 17.3285 -51.2747 25.3105 0.3241 0.9734 95.3086 -22.4162 37.5521 -27.1117 16.3851 6.9917 -16.5139 50.4066 -3.7725 -5.5300 5.8327 -28.9108 9.1253 -0.5738 50.4606 -1.2338 -7.6840 -29.1325 -1.0219 1.8036 -4.1050 -2.2005 10.4461 -49.2962 -19.5711 -0.2638 45.2100 -0.4498 -0.4925 -9.5899 -6.6664 -1.4049 -0.6637 1.0684
-18.9990 90.6467 -133.7431 -1.5886 12.1976 4.5548 -0.2636 2.8707 -0.3067 -0.3026 -3.0303 -1.2480 1.0328 12.1504 -2.4107 10.0697 -4.5475 0.4161 -0.4139 -3.6454 0.9814 -0.3585 -15.6288 1.4894 0.0143 0.0426 -0.1120 0.7808 -10.5383 -4.0008 -0.7440 -10.5089 3.7734 8.4474 8.9379 -15.1519 -30.9608 -37.4601 -38.1254 0.5217 1.7308 -68.7015 41.8129 38.6119 44.4731 -17.3143 11.1185 15.8217 -61.8478 1.4864 1.7458 -11.2230 3.0803 16.8833 17.8568 -50.7755 24.8728 0.5028 0.8366 94.9026 -22.3730 37.7665 -27.0734 16.3405 6.9704 -16.6144 50.1899 -3.9068 -5.5994 5.4066 -27.9011 8.7884 -0.4229 48.4230 -1.0418 -7.2141 -31.1049 -0.1328 1.7356 -2.5413 -2.1388 10.5368 -49.0353 -20.1622 -0.1898 44.3643 -0.3893 -0.3263 -8.7282 -6.4036 -1.4036 -1.0674 1.0541
-18.4864 90.7866 -134.6730 -1.5016 11.4497 4.6248 -0.5222 2.6890 -0.3096 -0.3822 -3.1532 -1.0411 0.7869 12.1167 -2.3254 10.2660 -3.9618 0.2883 -0.4107 -3.6331 1.1338 0.0704 -15.4167 1.5143 0.0175 0.0271 -0.0936 0.7864 -10.5394 -3.9845 -0.7435 -10.5272 3.7929 8.8267 8.7420 -14.7393 -31.5861 -38.3071 -37.1463 0.4760 1.7831 -69.3913 42.1942 39.5219 45.6413 -17.4374 11.1590 15.7877 -62.0759 1.5580 1.7871 -10.7979 3.3880 16.8597 19.1330 -50.6001 24.2407 0.5114 0.8676 94.6994 -22.7478 37.9266 -27.3972 16.3488 6.9447 -16.5456 50.3524 -3.9286 -5.6135 4.8259 -27.4651 8.6483 -0.3142 47.9749 -0.8949 -6.8115 -31.2267 0.0492 1.7105 -2.1091 -2.1320 9.8342 -48.4066 -20.0863 -0.1685 43.2198 -0.3286 0.0171 -7.8097 -6.2297 -1.3943 -1.4026 1.0656
